<mxfile host="app.diagrams.net" modified="2021-11-08T21:56:34.440Z" agent="5.0 (Macintosh; Intel Mac OS X 10_15_7) AppleWebKit/605.1.15 (KHTML, like Gecko) Version/13.1.3 Safari/605.1.15" etag="AKdLVxLWruArPTdRizUo" version="15.7.0" type="github">
  <diagram id="aWT0DO6NEqe1KrQBJNWQ" name="Page-1">
    <mxGraphModel dx="1186" dy="1981" grid="1" gridSize="10" guides="1" tooltips="1" connect="1" arrows="1" fold="1" page="1" pageScale="1" pageWidth="827" pageHeight="1169" math="0" shadow="0">
      <root>
        <mxCell id="0" />
        <mxCell id="1" parent="0" />
        <mxCell id="piQ0pNW8FSRzQy8db6SX-1" style="edgeStyle=orthogonalEdgeStyle;rounded=0;orthogonalLoop=1;jettySize=auto;html=1;exitX=1;exitY=0.75;exitDx=0;exitDy=0;entryX=1;entryY=0.75;entryDx=0;entryDy=0;" edge="1" parent="1" source="piQ0pNW8FSRzQy8db6SX-3" target="piQ0pNW8FSRzQy8db6SX-3">
          <mxGeometry relative="1" as="geometry" />
        </mxCell>
        <mxCell id="piQ0pNW8FSRzQy8db6SX-2" style="edgeStyle=orthogonalEdgeStyle;rounded=0;orthogonalLoop=1;jettySize=auto;html=1;exitX=1;exitY=0.25;exitDx=0;exitDy=0;entryX=-0.006;entryY=0.313;entryDx=0;entryDy=0;entryPerimeter=0;" edge="1" parent="1" source="piQ0pNW8FSRzQy8db6SX-3" target="piQ0pNW8FSRzQy8db6SX-9">
          <mxGeometry relative="1" as="geometry" />
        </mxCell>
        <mxCell id="piQ0pNW8FSRzQy8db6SX-3" value="" style="whiteSpace=wrap;html=1;aspect=fixed;" vertex="1" parent="1">
          <mxGeometry x="40" y="240" width="240" height="240" as="geometry" />
        </mxCell>
        <mxCell id="piQ0pNW8FSRzQy8db6SX-4" value="HTTP&lt;br&gt;Listener" style="ellipse;whiteSpace=wrap;html=1;direction=south;" vertex="1" parent="1">
          <mxGeometry x="80" y="330" width="50" height="70" as="geometry" />
        </mxCell>
        <mxCell id="piQ0pNW8FSRzQy8db6SX-5" value="HTTP&lt;br&gt;Requester" style="ellipse;whiteSpace=wrap;html=1;direction=south;" vertex="1" parent="1">
          <mxGeometry x="210" y="327.5" width="50" height="65" as="geometry" />
        </mxCell>
        <mxCell id="piQ0pNW8FSRzQy8db6SX-6" style="edgeStyle=orthogonalEdgeStyle;rounded=0;orthogonalLoop=1;jettySize=auto;html=1;exitX=0;exitY=0.75;exitDx=0;exitDy=0;entryX=1.025;entryY=0.833;entryDx=0;entryDy=0;entryPerimeter=0;" edge="1" parent="1" source="piQ0pNW8FSRzQy8db6SX-9" target="piQ0pNW8FSRzQy8db6SX-3">
          <mxGeometry relative="1" as="geometry" />
        </mxCell>
        <mxCell id="piQ0pNW8FSRzQy8db6SX-7" style="edgeStyle=orthogonalEdgeStyle;rounded=0;orthogonalLoop=1;jettySize=auto;html=1;exitX=1;exitY=0.25;exitDx=0;exitDy=0;" edge="1" parent="1" source="piQ0pNW8FSRzQy8db6SX-9">
          <mxGeometry relative="1" as="geometry">
            <mxPoint x="790" y="200" as="targetPoint" />
          </mxGeometry>
        </mxCell>
        <mxCell id="piQ0pNW8FSRzQy8db6SX-8" style="edgeStyle=orthogonalEdgeStyle;rounded=0;orthogonalLoop=1;jettySize=auto;html=1;exitX=1;exitY=0.75;exitDx=0;exitDy=0;entryX=0;entryY=0.5;entryDx=0;entryDy=0;" edge="1" parent="1" source="piQ0pNW8FSRzQy8db6SX-9" target="piQ0pNW8FSRzQy8db6SX-20">
          <mxGeometry relative="1" as="geometry" />
        </mxCell>
        <mxCell id="piQ0pNW8FSRzQy8db6SX-9" value="" style="whiteSpace=wrap;html=1;aspect=fixed;" vertex="1" parent="1">
          <mxGeometry x="360" y="200" width="320" height="320" as="geometry" />
        </mxCell>
        <mxCell id="piQ0pNW8FSRzQy8db6SX-10" style="edgeStyle=orthogonalEdgeStyle;rounded=0;orthogonalLoop=1;jettySize=auto;html=1;exitX=0.5;exitY=0;exitDx=0;exitDy=0;entryX=0.5;entryY=1;entryDx=0;entryDy=0;" edge="1" parent="1" source="piQ0pNW8FSRzQy8db6SX-12" target="piQ0pNW8FSRzQy8db6SX-14">
          <mxGeometry relative="1" as="geometry">
            <Array as="points">
              <mxPoint x="500" y="360" />
              <mxPoint x="500" y="428" />
            </Array>
          </mxGeometry>
        </mxCell>
        <mxCell id="piQ0pNW8FSRzQy8db6SX-11" style="edgeStyle=orthogonalEdgeStyle;rounded=0;orthogonalLoop=1;jettySize=auto;html=1;exitX=0.5;exitY=0;exitDx=0;exitDy=0;entryX=0.5;entryY=1;entryDx=0;entryDy=0;" edge="1" parent="1" source="piQ0pNW8FSRzQy8db6SX-12" target="piQ0pNW8FSRzQy8db6SX-13">
          <mxGeometry relative="1" as="geometry">
            <Array as="points">
              <mxPoint x="500" y="360" />
              <mxPoint x="500" y="293" />
            </Array>
          </mxGeometry>
        </mxCell>
        <mxCell id="piQ0pNW8FSRzQy8db6SX-12" value="HTTP&lt;br&gt;Listener" style="ellipse;whiteSpace=wrap;html=1;direction=south;" vertex="1" parent="1">
          <mxGeometry x="364" y="325" width="50" height="70" as="geometry" />
        </mxCell>
        <mxCell id="piQ0pNW8FSRzQy8db6SX-13" value="HTTP&lt;br&gt;Requester" style="ellipse;whiteSpace=wrap;html=1;direction=south;" vertex="1" parent="1">
          <mxGeometry x="590" y="260" width="50" height="65" as="geometry" />
        </mxCell>
        <mxCell id="piQ0pNW8FSRzQy8db6SX-14" value="HTTP&lt;br&gt;Requester" style="ellipse;whiteSpace=wrap;html=1;direction=south;" vertex="1" parent="1">
          <mxGeometry x="590" y="395" width="50" height="65" as="geometry" />
        </mxCell>
        <mxCell id="piQ0pNW8FSRzQy8db6SX-15" style="edgeStyle=orthogonalEdgeStyle;rounded=0;orthogonalLoop=1;jettySize=auto;html=1;exitX=1;exitY=0.5;exitDx=0;exitDy=0;entryX=0;entryY=0.5;entryDx=0;entryDy=0;" edge="1" parent="1" source="piQ0pNW8FSRzQy8db6SX-17" target="piQ0pNW8FSRzQy8db6SX-30">
          <mxGeometry relative="1" as="geometry" />
        </mxCell>
        <mxCell id="piQ0pNW8FSRzQy8db6SX-16" style="edgeStyle=orthogonalEdgeStyle;rounded=0;orthogonalLoop=1;jettySize=auto;html=1;exitX=0;exitY=0.25;exitDx=0;exitDy=0;entryX=1.01;entryY=0.124;entryDx=0;entryDy=0;entryPerimeter=0;" edge="1" parent="1" source="piQ0pNW8FSRzQy8db6SX-17" target="piQ0pNW8FSRzQy8db6SX-9">
          <mxGeometry relative="1" as="geometry">
            <Array as="points">
              <mxPoint x="730" y="140" />
              <mxPoint x="730" y="240" />
            </Array>
          </mxGeometry>
        </mxCell>
        <mxCell id="piQ0pNW8FSRzQy8db6SX-17" value="" style="whiteSpace=wrap;html=1;aspect=fixed;" vertex="1" parent="1">
          <mxGeometry x="800" y="80" width="240" height="240" as="geometry" />
        </mxCell>
        <mxCell id="piQ0pNW8FSRzQy8db6SX-18" style="edgeStyle=orthogonalEdgeStyle;rounded=0;orthogonalLoop=1;jettySize=auto;html=1;exitX=1;exitY=0.5;exitDx=0;exitDy=0;entryX=0;entryY=0.5;entryDx=0;entryDy=0;" edge="1" parent="1" source="piQ0pNW8FSRzQy8db6SX-20" target="piQ0pNW8FSRzQy8db6SX-26">
          <mxGeometry relative="1" as="geometry" />
        </mxCell>
        <mxCell id="piQ0pNW8FSRzQy8db6SX-19" style="edgeStyle=orthogonalEdgeStyle;rounded=0;orthogonalLoop=1;jettySize=auto;html=1;exitX=0;exitY=0.75;exitDx=0;exitDy=0;entryX=1.005;entryY=0.918;entryDx=0;entryDy=0;entryPerimeter=0;" edge="1" parent="1" source="piQ0pNW8FSRzQy8db6SX-20" target="piQ0pNW8FSRzQy8db6SX-9">
          <mxGeometry relative="1" as="geometry">
            <Array as="points">
              <mxPoint x="730" y="580" />
              <mxPoint x="730" y="494" />
            </Array>
          </mxGeometry>
        </mxCell>
        <mxCell id="piQ0pNW8FSRzQy8db6SX-20" value="" style="whiteSpace=wrap;html=1;aspect=fixed;" vertex="1" parent="1">
          <mxGeometry x="800" y="400" width="240" height="240" as="geometry" />
        </mxCell>
        <mxCell id="piQ0pNW8FSRzQy8db6SX-21" value="HTTP&lt;br&gt;Listener" style="ellipse;whiteSpace=wrap;html=1;direction=south;" vertex="1" parent="1">
          <mxGeometry x="810" y="490" width="50" height="70" as="geometry" />
        </mxCell>
        <mxCell id="piQ0pNW8FSRzQy8db6SX-22" value="HTTP&lt;br&gt;Listener" style="ellipse;whiteSpace=wrap;html=1;direction=south;" vertex="1" parent="1">
          <mxGeometry x="810" y="160" width="50" height="70" as="geometry" />
        </mxCell>
        <mxCell id="piQ0pNW8FSRzQy8db6SX-23" value="HTTP&lt;br&gt;Requester" style="ellipse;whiteSpace=wrap;html=1;direction=south;" vertex="1" parent="1">
          <mxGeometry x="980" y="487.5" width="50" height="65" as="geometry" />
        </mxCell>
        <mxCell id="piQ0pNW8FSRzQy8db6SX-24" value="HTTP&lt;br&gt;Requester" style="ellipse;whiteSpace=wrap;html=1;direction=south;" vertex="1" parent="1">
          <mxGeometry x="980" y="162.5" width="50" height="65" as="geometry" />
        </mxCell>
        <mxCell id="piQ0pNW8FSRzQy8db6SX-25" style="edgeStyle=orthogonalEdgeStyle;rounded=0;orthogonalLoop=1;jettySize=auto;html=1;exitX=0;exitY=0.75;exitDx=0;exitDy=0;entryX=1;entryY=0.75;entryDx=0;entryDy=0;" edge="1" parent="1" source="piQ0pNW8FSRzQy8db6SX-26" target="piQ0pNW8FSRzQy8db6SX-20">
          <mxGeometry relative="1" as="geometry" />
        </mxCell>
        <mxCell id="piQ0pNW8FSRzQy8db6SX-26" value="" style="whiteSpace=wrap;html=1;aspect=fixed;" vertex="1" parent="1">
          <mxGeometry x="1160" y="400" width="240" height="240" as="geometry" />
        </mxCell>
        <mxCell id="piQ0pNW8FSRzQy8db6SX-27" value="HTTP&lt;br&gt;Listener" style="ellipse;whiteSpace=wrap;html=1;direction=south;" vertex="1" parent="1">
          <mxGeometry x="1170" y="482.5" width="50" height="70" as="geometry" />
        </mxCell>
        <mxCell id="piQ0pNW8FSRzQy8db6SX-28" value="HTTP&lt;br&gt;Requester" style="ellipse;whiteSpace=wrap;html=1;direction=south;" vertex="1" parent="1">
          <mxGeometry x="1340" y="487.5" width="50" height="65" as="geometry" />
        </mxCell>
        <mxCell id="piQ0pNW8FSRzQy8db6SX-29" style="edgeStyle=orthogonalEdgeStyle;rounded=0;orthogonalLoop=1;jettySize=auto;html=1;exitX=0;exitY=0.75;exitDx=0;exitDy=0;entryX=1;entryY=0.75;entryDx=0;entryDy=0;" edge="1" parent="1" source="piQ0pNW8FSRzQy8db6SX-30" target="piQ0pNW8FSRzQy8db6SX-17">
          <mxGeometry relative="1" as="geometry" />
        </mxCell>
        <mxCell id="piQ0pNW8FSRzQy8db6SX-30" value="" style="whiteSpace=wrap;html=1;aspect=fixed;" vertex="1" parent="1">
          <mxGeometry x="1160" y="80" width="240" height="240" as="geometry" />
        </mxCell>
        <mxCell id="piQ0pNW8FSRzQy8db6SX-31" value="HTTP&lt;br&gt;Listener" style="ellipse;whiteSpace=wrap;html=1;direction=south;" vertex="1" parent="1">
          <mxGeometry x="1170" y="160" width="50" height="70" as="geometry" />
        </mxCell>
        <mxCell id="piQ0pNW8FSRzQy8db6SX-32" value="HTTP&lt;br&gt;Requester" style="ellipse;whiteSpace=wrap;html=1;direction=south;" vertex="1" parent="1">
          <mxGeometry x="1340" y="162.5" width="50" height="65" as="geometry" />
        </mxCell>
        <mxCell id="piQ0pNW8FSRzQy8db6SX-33" value="Exp API" style="text;html=1;align=center;verticalAlign=middle;resizable=0;points=[];autosize=1;strokeColor=none;fillColor=none;" vertex="1" parent="1">
          <mxGeometry x="130" y="-20" width="60" height="20" as="geometry" />
        </mxCell>
        <mxCell id="piQ0pNW8FSRzQy8db6SX-34" value="Process API" style="text;html=1;align=center;verticalAlign=middle;resizable=0;points=[];autosize=1;strokeColor=none;fillColor=none;" vertex="1" parent="1">
          <mxGeometry x="480" y="-20" width="80" height="20" as="geometry" />
        </mxCell>
        <mxCell id="piQ0pNW8FSRzQy8db6SX-35" value="System API" style="text;html=1;align=center;verticalAlign=middle;resizable=0;points=[];autosize=1;strokeColor=none;fillColor=none;" vertex="1" parent="1">
          <mxGeometry x="880" y="-20" width="80" height="20" as="geometry" />
        </mxCell>
        <mxCell id="piQ0pNW8FSRzQy8db6SX-36" value="External Systems (Travel on tip / Fast Go)" style="text;html=1;align=center;verticalAlign=middle;resizable=0;points=[];autosize=1;strokeColor=none;fillColor=none;" vertex="1" parent="1">
          <mxGeometry x="1160" y="-20" width="240" height="20" as="geometry" />
        </mxCell>
        <mxCell id="piQ0pNW8FSRzQy8db6SX-37" value="" style="endArrow=none;dashed=1;html=1;dashPattern=1 3;strokeWidth=2;rounded=0;startArrow=none;" edge="1" parent="1" source="piQ0pNW8FSRzQy8db6SX-40">
          <mxGeometry width="50" height="50" relative="1" as="geometry">
            <mxPoint x="320" y="730" as="sourcePoint" />
            <mxPoint x="320" as="targetPoint" />
            <Array as="points" />
          </mxGeometry>
        </mxCell>
        <mxCell id="piQ0pNW8FSRzQy8db6SX-38" value="" style="endArrow=none;dashed=1;html=1;dashPattern=1 3;strokeWidth=2;rounded=0;" edge="1" parent="1">
          <mxGeometry width="50" height="50" relative="1" as="geometry">
            <mxPoint x="720" y="725" as="sourcePoint" />
            <mxPoint x="720" y="-5" as="targetPoint" />
            <Array as="points">
              <mxPoint x="720" y="105" />
            </Array>
          </mxGeometry>
        </mxCell>
        <mxCell id="piQ0pNW8FSRzQy8db6SX-39" value="" style="endArrow=none;dashed=1;html=1;dashPattern=1 3;strokeWidth=2;rounded=0;" edge="1" parent="1">
          <mxGeometry width="50" height="50" relative="1" as="geometry">
            <mxPoint x="1080" y="725" as="sourcePoint" />
            <mxPoint x="1080" y="-5" as="targetPoint" />
            <Array as="points">
              <mxPoint x="1080" y="105" />
            </Array>
          </mxGeometry>
        </mxCell>
        <mxCell id="piQ0pNW8FSRzQy8db6SX-40" value="Request" style="text;html=1;align=center;verticalAlign=middle;resizable=0;points=[];autosize=1;strokeColor=none;fillColor=none;" vertex="1" parent="1">
          <mxGeometry x="290" y="282.5" width="60" height="20" as="geometry" />
        </mxCell>
        <mxCell id="piQ0pNW8FSRzQy8db6SX-41" value="" style="endArrow=none;dashed=1;html=1;dashPattern=1 3;strokeWidth=2;rounded=0;startArrow=none;" edge="1" parent="1" source="piQ0pNW8FSRzQy8db6SX-42" target="piQ0pNW8FSRzQy8db6SX-40">
          <mxGeometry width="50" height="50" relative="1" as="geometry">
            <mxPoint x="320" y="730" as="sourcePoint" />
            <mxPoint x="320" as="targetPoint" />
            <Array as="points">
              <mxPoint x="320" y="110" />
            </Array>
          </mxGeometry>
        </mxCell>
        <mxCell id="piQ0pNW8FSRzQy8db6SX-42" value="Response" style="text;html=1;align=center;verticalAlign=middle;resizable=0;points=[];autosize=1;strokeColor=none;fillColor=none;" vertex="1" parent="1">
          <mxGeometry x="285" y="440" width="70" height="20" as="geometry" />
        </mxCell>
        <mxCell id="piQ0pNW8FSRzQy8db6SX-43" value="" style="endArrow=none;dashed=1;html=1;dashPattern=1 3;strokeWidth=2;rounded=0;" edge="1" parent="1" target="piQ0pNW8FSRzQy8db6SX-42">
          <mxGeometry width="50" height="50" relative="1" as="geometry">
            <mxPoint x="320" y="730" as="sourcePoint" />
            <mxPoint x="320" y="282.5" as="targetPoint" />
            <Array as="points" />
          </mxGeometry>
        </mxCell>
      </root>
    </mxGraphModel>
  </diagram>
</mxfile>
